<?xml version="1.0" encoding="utf-8"?>
<!-- Generator: Adobe Illustrator 15.0.2, SVG Export Plug-In . SVG Version: 6.00 Build 0)  -->
<!DOCTYPE svg PUBLIC "-//W3C//DTD SVG 1.1//EN" "http://www.w3.org/Graphics/SVG/1.1/DTD/svg11.dtd">
<svg version="1.1" id="Capa_1" xmlns="http://www.w3.org/2000/svg" xmlns:xlink="http://www.w3.org/1999/xlink" x="0px" y="0px"
	 width="146px" height="114.714px" viewBox="35 15.643 146 114.714" enable-background="new 35 15.643 146 114.714"
	 xml:space="preserve">
<g>
	<path d="M53.25,46.929H37.607c-0.706,0-1.317,0.257-1.833,0.773C35.258,48.219,35,48.83,35,49.536v15.643
		c0,0.706,0.258,1.318,0.774,1.833c0.516,0.515,1.127,0.774,1.833,0.774H53.25c0.706,0,1.317-0.258,1.833-0.774
		c0.516-0.516,0.774-1.127,0.774-1.833V49.536c0-0.706-0.258-1.317-0.774-1.834C54.567,47.187,53.956,46.929,53.25,46.929z"/>
	<path d="M53.25,109.5H37.607c-0.706,0-1.317,0.257-1.833,0.773C35.258,110.789,35,111.4,35,112.107v15.643
		c0,0.706,0.258,1.316,0.774,1.833s1.127,0.774,1.833,0.774H53.25c0.706,0,1.317-0.258,1.833-0.774s0.774-1.127,0.774-1.833v-15.643
		c0-0.707-0.258-1.317-0.774-1.834C54.567,109.758,53.956,109.5,53.25,109.5z"/>
	<path d="M53.25,78.214H37.607c-0.706,0-1.317,0.259-1.833,0.774C35.258,79.503,35,80.115,35,80.82v15.644
		c0,0.707,0.258,1.317,0.774,1.834c0.516,0.515,1.127,0.772,1.833,0.772H53.25c0.706,0,1.317-0.256,1.833-0.772
		c0.516-0.516,0.774-1.127,0.774-1.834V80.82c0-0.705-0.258-1.316-0.774-1.832S53.956,78.214,53.25,78.214z"/>
	<path fill="#D3D3D3" d="M53.25,15.643H37.607c-0.706,0-1.317,0.258-1.833,0.774S35,17.544,35,18.25v15.643
		c0,0.706,0.258,1.317,0.774,1.833s1.127,0.774,1.833,0.774H53.25c0.706,0,1.317-0.257,1.833-0.774
		c0.516-0.516,0.774-1.127,0.774-1.833V18.25c0-0.706-0.258-1.317-0.774-1.833C54.567,15.902,53.956,15.643,53.25,15.643z"/>
	<path d="M178.393,109.5h-109.5c-0.706,0-1.317,0.257-1.833,0.773c-0.516,0.516-0.774,1.127-0.774,1.834v15.643
		c0,0.706,0.258,1.316,0.774,1.833s1.126,0.774,1.833,0.774h109.5c0.707,0,1.317-0.258,1.834-0.774
		c0.518-0.517,0.773-1.127,0.773-1.833v-15.643c0-0.707-0.258-1.317-0.773-1.834C179.71,109.758,179.1,109.5,178.393,109.5z"/>
	<path d="M178.393,78.214h-109.5c-0.706,0-1.317,0.259-1.833,0.774c-0.516,0.515-0.774,1.127-0.774,1.832v15.644
		c0,0.707,0.258,1.317,0.774,1.834c0.516,0.515,1.126,0.772,1.833,0.772h109.5c0.707,0,1.317-0.256,1.834-0.772
		c0.518-0.516,0.773-1.127,0.773-1.834V80.82c0-0.705-0.258-1.316-0.773-1.832C179.71,78.473,179.1,78.214,178.393,78.214z"/>
	<path fill="#D3D3D3" d="M180.227,16.417c-0.517-0.515-1.127-0.774-1.834-0.774h-109.5c-0.706,0-1.317,0.258-1.833,0.774
		s-0.774,1.127-0.774,1.833v15.643c0,0.706,0.258,1.317,0.774,1.833s1.126,0.774,1.833,0.774h109.5c0.707,0,1.317-0.257,1.834-0.774
		c0.518-0.516,0.773-1.127,0.773-1.833V18.25C181,17.544,180.742,16.933,180.227,16.417z"/>
	<path d="M178.393,46.929h-109.5c-0.706,0-1.317,0.257-1.833,0.773c-0.516,0.517-0.774,1.128-0.774,1.834v15.643
		c0,0.706,0.258,1.317,0.774,1.833c0.516,0.515,1.126,0.774,1.833,0.774h109.5c0.707,0,1.317-0.258,1.834-0.774
		c0.518-0.516,0.773-1.127,0.773-1.833V49.536c0-0.706-0.258-1.317-0.773-1.834C179.71,47.187,179.1,46.929,178.393,46.929z"/>
</g>
</svg>
