<?xml version="1.0" encoding="utf-8"?>
<!-- Generator: Adobe Illustrator 15.0.2, SVG Export Plug-In . SVG Version: 6.00 Build 0)  -->
<!DOCTYPE svg PUBLIC "-//W3C//DTD SVG 1.1//EN" "http://www.w3.org/Graphics/SVG/1.1/DTD/svg11.dtd">
<svg version="1.1" id="_x31_" xmlns="http://www.w3.org/2000/svg" xmlns:xlink="http://www.w3.org/1999/xlink" x="0px" y="0px"
	 width="287.312px" height="287.312px" viewBox="0 0 287.312 287.312" enable-background="new 0 0 287.312 287.312"
	 xml:space="preserve">
<linearGradient id="SVGID_1_" gradientUnits="userSpaceOnUse" x1="143.6562" y1="283.0605" x2="143.6562" y2="4.2524">
	<stop  offset="0.3681" style="stop-color:#563E7D"/>
	<stop  offset="0.638" style="stop-color:#6F559A"/>
</linearGradient>
<path fill-rule="evenodd" clip-rule="evenodd" fill="url(#SVGID_1_)" stroke="#000000" stroke-width="8.5039" stroke-miterlimit="22.9256" d="
	M37.882,4.252h211.547c18.496,0,33.631,15.134,33.631,33.63V249.43c0,18.496-15.135,33.631-33.631,33.631H37.882
	c-18.497,0-33.63-15.135-33.63-33.631V37.882C4.252,19.386,19.386,4.252,37.882,4.252z"/>
<path fill-rule="evenodd" clip-rule="evenodd" fill="#FBFBFB" stroke="#000000" stroke-width="3.9685" stroke-miterlimit="22.9256" d="
	M137.839,116.28c-4.486,4.48-8.729,9.227-12.771,14.283c-4.227-0.918-7.553,0.059-12.364-0.787
	c-2.979-0.524-4.799-2.188-12.122-8.746c-6.395-6.086-4.809-4.182-11.155-10.318c-4.529-4.378-6.381-2.28-7.1-0.114
	c-0.441,1.336-3.45,3.065-5.059,4.718c-14.543,14.938-33.571,32.425-41.814,46.62c-6.228,10.722-6.284,28.569,14.561,65.562
	c0.627,1.115,1.599,2.087,2.715,2.717c36.993,20.844,54.839,20.785,65.562,14.559c14.195-8.244,31.684-27.271,46.62-41.814
	c1.651-1.608,3.383-4.616,4.719-5.059c2.166-0.718,4.264-2.568-0.116-7.099c-6.136-6.347-4.231-4.761-10.318-11.154
	c-6.558-7.324-8.222-9.145-8.746-12.123c-0.845-4.81,0.132-8.139-0.788-12.363c5.057-4.041,9.803-8.285,14.284-12.771l1.329,1.328
	c1.477,1.479,3.893,1.479,5.369,0l9.589-9.588c1.477-1.477,1.477-3.894,0-5.37l-3.451-3.452l37.421-37.421l3.696,3.696
	c1.343,1.343,3.539,1.343,4.881,0l4.708-4.707c1.342-1.343,1.342-3.54,0-4.882l-0.705-0.703c8.587,2.578,16.869,1,23.999-3.386
	l4.853,4.853c0.471,0.472,1.525,0.377,1.996-0.094l7.589-7.588c0.448-0.449,0.456-1.454,0.008-1.902l-58.083-58.082
	c-0.472-0.473-1.533-0.545-2.006-0.072l-7.572,7.574c-0.498,0.498-0.483,1.614,0.015,2.111l4.741,4.741
	c-4.387,7.129-5.965,15.413-3.387,23.998l-0.703-0.705c-1.343-1.342-3.538-1.342-4.881,0l-4.708,4.708
	c-1.342,1.342-1.342,3.538,0,4.88l3.697,3.696l-37.422,37.421l-3.452-3.451c-1.476-1.478-3.893-1.478-5.369,0l-9.589,9.588
	c-1.477,1.478-1.477,3.894,0,5.37L137.839,116.28L137.839,116.28z M244,71.12c-6.392,5.435-15.677-2.018-24.274-10.616
	s-14.517-18.651-10.617-24.276L244,71.12L244,71.12z M129.844,156.364c2.259,3.428-23.579,29.279-27.06,27.443L129.844,156.364
	L129.844,156.364z M148.519,125.727l-66.785,66.401c-1.965-3.547,0.576-8.211,2.885-11.365
	c10.127-13.832,18.558-20.809,29.586-33.934c0.868-1.031,1.819-2.273,1.8-3.621l-0.054-3.773c-0.017-1.162,1.023-2.646,2.182-2.717
	l4.989-0.307c6.415-0.727,5.542-1.619,14.258-10.014C139.922,123.661,145.067,122.753,148.519,125.727z"/>
</svg>
